<svg xmlns="http://www.w3.org/2000/svg" width="256" height="256" viewBox="0 0 100 100"><rect width="100" height="100" rx="20" fill="#272b34"></rect><path fill="#dcddde" d="M25.26 91.40L25.46 18.15Q24.97 16.49 24.72 15.18Q24.48 13.86 24.67 12.29L24.67 12.29Q24.77 11.81 24.92 11.22Q25.06 10.63 25.41 10.29Q25.75 9.95 26.33 9.80Q26.92 9.66 27.90 10.05L27.90 10.05Q28.48 10.34 29.07 11.07Q29.65 11.81 30.09 12.78Q30.53 13.76 30.83 14.64Q31.12 15.52 31.22 16.10L31.22 16.10Q33.85 14.54 37.08 12.93Q40.30 11.32 43.77 10.20Q47.23 9.07 50.75 8.53Q54.26 8.00 57.49 8.39L57.49 8.39Q58.56 8.49 59.98 8.93Q61.39 9.37 62.61 10.10Q63.83 10.83 64.66 11.86Q65.49 12.88 65.30 14.25L65.30 14.25Q65.30 16.88 64.18 19.72Q63.05 22.55 61.30 25.38Q59.54 28.21 57.34 30.95Q55.14 33.68 53.04 36.07Q50.94 38.47 49.09 40.42Q47.23 42.37 46.26 43.64L46.26 43.64Q49.58 42.37 54.07 41.45Q58.56 40.52 62.91 40.81Q67.25 41.10 70.72 42.96Q74.19 44.81 75.36 49.01L75.36 49.01Q75.65 51.55 74.38 54.73Q73.11 57.90 70.77 61.32Q68.42 64.74 65.25 68.20Q62.08 71.67 58.61 74.89Q55.14 78.12 51.63 80.85Q48.11 83.58 45.13 85.59Q42.15 87.59 39.91 88.61Q37.66 89.64 36.69 89.44L36.69 89.44L34.34 85.54Q34.83 85.63 37.47 83.93Q40.10 82.22 43.77 79.43Q47.43 76.65 51.63 73.09Q55.83 69.52 59.49 65.91Q63.15 62.29 65.69 58.93Q68.23 55.56 68.62 53.02L68.62 53.02Q69.11 49.60 66.81 48.09Q64.52 46.57 60.61 46.57Q56.71 46.57 51.92 47.89Q47.14 49.21 42.84 51.31Q38.54 53.41 35.32 56.14Q32.10 58.88 31.31 61.81L31.31 61.81Q30.92 64.83 30.83 68.06Q30.73 71.28 30.68 74.55Q30.63 77.82 30.58 81.04Q30.53 84.27 30.14 87.20L30.14 87.20Q29.85 89.35 29.31 90.71Q28.78 92.08 26.43 91.69L26.43 91.69Q26.24 91.69 25.75 91.59Q25.26 91.49 25.26 91.40L25.26 91.40ZM31.41 25.77L31.41 25.77Q31.12 27.72 30.97 30.75Q30.83 33.78 30.83 37.00Q30.83 40.22 31.07 43.25Q31.31 46.28 31.80 48.33L31.80 48.33Q33.56 46.87 36.64 44.23Q39.71 41.59 43.18 38.32Q46.65 35.05 49.97 31.44Q53.29 27.82 55.48 24.45Q57.68 21.08 58.27 18.30Q58.85 15.52 56.90 13.86L56.90 13.86Q55.14 13.66 52.65 13.81Q50.16 13.95 47.43 14.49Q44.69 15.03 41.96 16.01Q39.22 16.98 36.98 18.40Q34.73 19.81 33.22 21.67Q31.71 23.53 31.41 25.77Z"></path></svg>
